<?xml version="1.0" encoding="utf-8"?>
<svg width="22px" height="22px" viewBox="0 0 22 22" version="1.1" xmlns:xlink="http://www.w3.org/1999/xlink" xmlns="http://www.w3.org/2000/svg">
  <desc>Created with Lunacy</desc>
  <g id="Icon">
    <path d="M16.9583 9.16667L15.5833 9.16667L15.5833 5.5C15.5833 4.49167 14.7583 3.66667 13.75 3.66667L10.0833 3.66667L10.0833 2.29167C10.0833 1.02667 9.05667 0 7.79167 0C6.52667 0 5.5 1.02667 5.5 2.29167L5.5 3.66667L1.83333 3.66667C0.825 3.66667 0.00916667 4.49167 0.00916667 5.5L0.00916667 8.98333L1.375 8.98333C2.74083 8.98333 3.85 10.0925 3.85 11.4583C3.85 12.8242 2.74083 13.9333 1.375 13.9333L0 13.9333L0 17.4167C0 18.425 0.825 19.25 1.83333 19.25L5.31667 19.25L5.31667 17.875C5.31667 16.5092 6.42583 15.4 7.79167 15.4C9.1575 15.4 10.2667 16.5092 10.2667 17.875L10.2667 19.25L13.75 19.25C14.7583 19.25 15.5833 18.425 15.5833 17.4167L15.5833 13.75L16.9583 13.75C18.2233 13.75 19.25 12.7233 19.25 11.4583C19.25 10.1933 18.2233 9.16667 16.9583 9.16667Z" transform="translate(1.833333 0.9166667)" id="Color" fill="#FFFFFF" stroke="none" />
  </g>
</svg>