<?xml version="1.0" encoding="utf-8"?>
<svg width="150px" height="30px" viewBox="0 0 150 30" version="1.1" xmlns:xlink="http://www.w3.org/1999/xlink" xmlns="http://www.w3.org/2000/svg">
  <desc>Created with Lunacy</desc>
  <g id="Dots">
    <path d="M5 10C7.76142 10 10 7.76142 10 5C10 2.23858 7.76142 0 5 0C2.23858 0 0 2.23858 0 5C0 7.76142 2.23858 10 5 10Z" transform="translate(100 0)" id="Oval" fill="#FFFFFF" stroke="none" />
    <path d="M5 10C7.76142 10 10 7.76142 10 5C10 2.23858 7.76142 0 5 0C2.23858 0 0 2.23858 0 5C0 7.76142 2.23858 10 5 10Z" transform="translate(80 0)" id="Oval" fill="#FFFFFF" stroke="none" />
    <path d="M5 10C7.76142 10 10 7.76142 10 5C10 2.23858 7.76142 0 5 0C2.23858 0 0 2.23858 0 5C0 7.76142 2.23858 10 5 10Z" transform="translate(80 20)" id="Oval" fill="#FFFFFF" stroke="none" />
    <path d="M5 10C7.76142 10 10 7.76142 10 5C10 2.23858 7.76142 0 5 0C2.23858 0 0 2.23858 0 5C0 7.76142 2.23858 10 5 10Z" transform="translate(100 20)" id="Oval" fill="#FFFFFF" stroke="none" />
    <path d="M5 10C7.76142 10 10 7.76142 10 5C10 2.23858 7.76142 0 5 0C2.23858 0 0 2.23858 0 5C0 7.76142 2.23858 10 5 10Z" transform="translate(140 0)" id="Oval" fill="#FFFFFF" stroke="none" />
    <path d="M5 10C7.76142 10 10 7.76142 10 5C10 2.23858 7.76142 0 5 0C2.23858 0 0 2.23858 0 5C0 7.76142 2.23858 10 5 10Z" transform="translate(120 0)" id="Oval" fill="#FFFFFF" stroke="none" />
    <path d="M5 10C7.76142 10 10 7.76142 10 5C10 2.23858 7.76142 0 5 0C2.23858 0 0 2.23858 0 5C0 7.76142 2.23858 10 5 10Z" transform="translate(120 20)" id="Oval" fill="#FFFFFF" stroke="none" />
    <path d="M5 10C7.76142 10 10 7.76142 10 5C10 2.23858 7.76142 0 5 0C2.23858 0 0 2.23858 0 5C0 7.76142 2.23858 10 5 10Z" transform="translate(140 20)" id="Oval" fill="#FFFFFF" stroke="none" />
    <path d="M5 10C7.76142 10 10 7.76142 10 5C10 2.23858 7.76142 0 5 0C2.23858 0 0 2.23858 0 5C0 7.76142 2.23858 10 5 10Z" transform="translate(20 0)" id="Oval" fill="#FFFFFF" stroke="none" />
    <path d="M5 10C7.76142 10 10 7.76142 10 5C10 2.23858 7.76142 0 5 0C2.23858 0 0 2.23858 0 5C0 7.76142 2.23858 10 5 10Z" transform="translate(20 20)" id="Oval" fill="#FFFFFF" stroke="none" />
    <path d="M5 10C7.76142 10 10 7.76142 10 5C10 2.23858 7.76142 0 5 0C2.23858 0 0 2.23858 0 5C0 7.76142 2.23858 10 5 10Z" id="Oval" fill="#FFFFFF" stroke="none" />
    <path d="M5 10C7.76142 10 10 7.76142 10 5C10 2.23858 7.76142 0 5 0C2.23858 0 0 2.23858 0 5C0 7.76142 2.23858 10 5 10Z" transform="translate(0 20)" id="Oval" fill="#FFFFFF" stroke="none" />
    <path d="M5 10C7.76142 10 10 7.76142 10 5C10 2.23858 7.76142 0 5 0C2.23858 0 0 2.23858 0 5C0 7.76142 2.23858 10 5 10Z" transform="translate(60 0)" id="Oval" fill="#FFFFFF" stroke="none" />
    <path d="M5 10C7.76142 10 10 7.76142 10 5C10 2.23858 7.76142 0 5 0C2.23858 0 0 2.23858 0 5C0 7.76142 2.23858 10 5 10Z" transform="translate(60 20)" id="Oval" fill="#FFFFFF" stroke="none" />
    <path d="M5 10C7.76142 10 10 7.76142 10 5C10 2.23858 7.76142 0 5 0C2.23858 0 0 2.23858 0 5C0 7.76142 2.23858 10 5 10Z" transform="translate(40 0)" id="Oval" fill="#FFFFFF" stroke="none" />
    <path d="M5 10C7.76142 10 10 7.76142 10 5C10 2.23858 7.76142 0 5 0C2.23858 0 0 2.23858 0 5C0 7.76142 2.23858 10 5 10Z" transform="translate(40 20)" id="Oval" fill="#FFFFFF" stroke="none" />
  </g>
</svg>