<?xml version="1.0" encoding="utf-8"?>
<svg width="51px" height="51px" viewBox="0 0 51 51" version="1.1" xmlns:xlink="http://www.w3.org/1999/xlink" xmlns="http://www.w3.org/2000/svg">
  <desc>Created with Lunacy</desc>
  <g id="Icons-/-Guard">
    <path d="M0.901512 16.5754C-0.301618 15.7282 -0.300266 13.9441 0.904147 13.0987L18.2982 0.889385C19.9872 -0.296185 22.512 -0.296738 24.2018 0.889385L41.5959 13.0987C42.8003 13.9441 42.8016 15.7282 41.5985 16.5754L24.2044 28.8241C22.5143 30.0144 19.9865 30.0149 18.2956 28.8241L0.901512 16.5754ZM36.6718 14.8467L21.7601 4.36797C21.5359 4.21061 20.9639 4.21074 20.7399 4.36797L5.81293 14.8456L20.7425 25.3493C20.9656 25.5063 21.5346 25.5062 21.7575 25.3493L36.6718 14.8467ZM36.6928 27.6878L21.7448 38.1278C21.5218 38.2835 20.9523 38.2837 20.7291 38.1278L5.78417 27.7052L6.54769 27.1737C7.509 26.5044 7.74129 25.189 7.06652 24.2356C6.39176 23.2822 5.06546 23.0518 4.10415 23.721C3.50631 24.1372 1.29321 25.6193 0.875839 25.9685C-0.25146 26.9115 -0.330833 28.5784 0.873202 29.4193L18.2803 41.5768C19.9726 42.7587 22.5022 42.7581 24.1936 41.5768L41.6008 29.4193C42.8048 28.5784 42.7955 26.9765 41.5981 25.9685C41.1949 25.629 39.0789 24.1801 38.464 23.7865C37.4283 23.1237 36.1498 23.2822 35.4751 24.2356C34.8003 25.189 35.0591 26.57 36.0204 27.2392C36.6008 27.6433 36.6928 27.6878 36.6928 27.6878Z" transform="translate(4.25 4.25)" id="Combined-Shape" fill="#316AFF" fill-rule="evenodd" stroke="none" />
  </g>
</svg>