<?xml version="1.0" encoding="utf-8"?>
<svg width="51px" height="51px" viewBox="0 0 51 51" version="1.1" xmlns:xlink="http://www.w3.org/1999/xlink" xmlns="http://www.w3.org/2000/svg">
  <desc>Created with Lunacy</desc>
  <g id="Icons-/-Guard">
    <path d="M1.37815e-05 21.244C0.0384957 27.6347 3.1503 33.0622 8.21863 37.2379C11.9559 40.317 16.7432 42.5323 19.125 42.501C21.5344 42.5323 26.3218 40.317 30.059 37.2379C35.1273 33.0622 38.2392 27.6347 38.2776 21.244C38.254 14.2054 38.277 2.228 38.2776 2.14019C38.2868 0.739826 36.9626 -0.286435 35.6089 0.0719218C35.5585 0.085242 32.7271 0.783711 30.6615 1.09366C26.858 1.66438 22.947 2.12617 19.125 2.12617C15.3306 2.12617 11.4196 1.66438 7.61612 1.09366C5.5505 0.783711 2.7191 0.085242 2.66878 0.0719218C1.31502 -0.286435 -0.00919264 0.739826 4.80826e-05 2.14019C0.000627961 2.228 0.023632 14.2054 1.37815e-05 21.244ZM6.86196 5.33202C5.93491 5.20017 5.1017 4.96158 4.25 4.79404C4.25 4.93099 4.25068 5.29016 4.25168 5.82643C4.25664 8.46613 4.26964 15.3969 4.24996 21.2383C4.27998 26.2117 6.75162 30.5226 10.9211 33.9578C12.5693 35.3157 14.4008 36.4534 16.1526 37.264C17.5246 37.8989 18.7201 38.2563 19.125 38.2514C19.5575 38.2563 20.753 37.8989 22.1251 37.264C23.8768 36.4534 25.7084 35.3157 27.3566 33.9578C31.526 30.5226 33.9977 26.2117 34.0277 21.2383C34.008 15.3987 34.021 8.47044 34.026 5.8289L34.026 5.82664C34.027 5.29025 34.0276 4.93101 34.0276 4.79404C33.1759 4.96158 32.3427 5.20017 31.4157 5.33202C27.3566 5.90931 23.2091 6.37617 19.125 6.37617C15.0686 6.37617 10.9211 5.90931 6.86196 5.33202ZM9.1224 21.6913L15.4974 28.0663C16.3273 28.8961 17.6727 28.8961 18.5026 28.0663L30.1901 16.3788C31.02 15.5489 31.02 14.2034 30.1901 13.3736C29.3602 12.5437 28.0148 12.5437 27.1849 13.3736L17 23.5884L12.1276 18.6861C11.2977 17.8562 9.95226 17.8562 9.1224 18.6861C8.29254 19.5159 8.29254 20.8614 9.1224 21.6913Z" transform="translate(6.375 4.25)" id="Combined-Shape" fill="#316AFF" fill-rule="evenodd" stroke="none" />
  </g>
</svg>