<?xml version="1.0" encoding="utf-8"?>
<svg width="51px" height="51px" viewBox="0 0 51 51" version="1.1" xmlns:xlink="http://www.w3.org/1999/xlink" xmlns="http://www.w3.org/2000/svg">
  <desc>Created with Lunacy</desc>
  <g id="Icons-/-Guard">
    <path d="M20.218 0.267416L1.09301 10.8924C0.418395 11.2672 0 11.9783 0 12.75L0 34C0 34.7717 0.418395 35.4828 1.09301 35.8576L20.218 46.4826C20.8598 46.8391 21.6402 46.8391 22.282 46.4826L41.407 35.8576C42.0816 35.4828 42.5 34.7717 42.5 34L42.5 12.75C42.5 11.9783 42.0816 11.2672 41.407 10.8924L22.282 0.267416C21.6402 -0.0891386 20.8598 -0.0891386 20.218 0.267416ZM21.25 4.56389L6.50104 12.7541L21.2713 20.9542L36.0548 12.7851L21.25 4.56389ZM4.25 16.3658L19.125 24.6257L19.125 41.0232L4.25 32.77L4.25 16.3658ZM23.375 41.019L38.25 32.7365L38.25 16.4247L23.375 24.6297L23.375 41.019Z" transform="translate(4.25 2.125)" id="Combined-Shape" fill="#316AFF" fill-rule="evenodd" stroke="none" />
  </g>
</svg>