<?xml version="1.0" encoding="utf-8"?>
<svg width="689px" height="651px" viewBox="0 0 689 651" version="1.1" xmlns:xlink="http://www.w3.org/1999/xlink" xmlns="http://www.w3.org/2000/svg">
  <desc>Created with Lunacy</desc>
  <g id="3">
    <path d="M0 0L689 0L689 651L0 651L0 0Z" id="BG" fill="#FFFFFF" stroke="none" />
    <g id="Ornament_1_" transform="translate(98 400)">
      <path d="M370.906 69.0078C393.223 67.9301 414.944 61.7029 434.637 51.1646C435.949 50.5659 437.143 52.4819 435.83 53.2004C413.035 65.2955 387.614 71.7622 361.835 71.5227C353.123 71.4029 340.353 71.0436 329.731 67.5708C327.583 69.8461 325.316 71.7622 323.048 73.4387C290.347 97.0301 244.757 101.341 207.402 87.2103C164.079 70.8041 139.374 27.4535 97.3646 9.1313C75.2855 -0.568696 50.3422 0.149822 30.0534 14.0412C10.0032 27.8128 -0.0218222 52.2424 2.72314 76.193C2.96183 77.6301 0.574908 77.6301 0.455562 76.193C-4.43763 34.0399 30.7695 -3.56252 73.2567 0.269575C113.596 3.86217 140.807 37.872 170.046 61.8227C186.158 74.9955 204.06 85.0548 224.468 89.7251C243.802 94.0362 264.21 93.7967 283.425 88.8869C292.853 86.4918 302.043 83.019 310.636 78.3486C316.484 75.235 322.69 71.5227 327.702 66.7325C319.348 63.4992 312.665 58.2301 310.875 49.2486C308.368 36.5548 320.303 22.6634 332.596 32.7227C344.53 42.4227 340.114 55.7153 331.76 65.4153C334.147 66.1338 336.534 66.6128 338.802 67.0918C349.304 69.1276 360.284 69.6066 370.906 69.0078ZM326.509 32.1239C315.29 29.1301 310.875 42.9017 313.858 51.4041C316.245 58.4696 322.809 62.4214 329.612 64.8165C331.283 63.1399 332.715 61.3437 333.908 59.4276C339.518 50.4461 338.563 35.3572 326.509 32.1239Z" transform="translate(0.8572446 0.6884496)" id="XMLID_315_" fill="#DADEEB" fill-rule="evenodd" stroke="none" />
      <path d="M31.6267 0L0 28.5012L44.6354 47.063L31.6267 0Z" transform="translate(90.4643 4.790123)" id="XMLID_948_" fill="#DADEEB" stroke="none" />
    </g>
    <g id="Window_2_" transform="translate(85 60)">
      <path d="M0 0L65.7135 0L65.7135 55.313L0 55.313L0 0Z" transform="translate(85.03402 54.55141)" id="XMLID_1102_" fill="#ECEFF8" stroke="none" />
      <path d="M0 0L65.7135 0L65.7135 55.313L0 55.313L0 0Z" transform="translate(169.4717 54.55141)" id="XMLID_1101_" fill="#DADEEB" stroke="none" />
      <path d="M65.8328 12.6454L65.8328 14.9103C60.466 15.5064 55.5762 18.725 52.5947 23.7318C51.8791 24.9239 50.2094 24.0894 50.448 22.8974C52.5947 15.0296 48.182 5.96967 40.0721 3.7047C31.0082 1.20131 21.9443 8.71148 21.1094 17.6522C20.9902 18.9635 19.2012 19.2019 18.8434 18.0098C17.5316 13.9567 16.2197 9.78436 13.4766 6.56572C10.1373 2.75103 3.33934 0.605265 0 4.65837L0 1.67815C2.38525 0.0092201 5.60533 -0.467616 8.70615 0.486056C14.6693 2.3934 17.6508 7.87702 19.6783 13.4798C22.4213 5.61204 30.4119 -0.348407 39.118 1.20131C47.5857 2.75103 53.0717 10.8572 53.0717 18.9635C56.6496 15.3872 61.0623 13.2414 65.8328 12.6454Z" transform="translate(84.91476 66.58231)" id="XMLID_1100_" fill="#FFFFFF" stroke="none" />
      <path d="M65.7135 0L65.7135 2.14576C61.4201 2.26497 57.1266 3.69548 53.7873 6.67571C46.0352 13.3514 43.7693 24.1994 35.5402 30.5175C24.8066 38.8621 10.7336 38.7429 0 32.0672L0 29.4446C8.10983 35.0475 18.7242 36.478 28.2652 32.1864C38.8795 27.4181 41.9803 17.5237 48.5397 8.94068C52.8332 3.33785 59.2734 0.238418 65.7135 0Z" transform="translate(169.4717 55.86271)" id="XMLID_1099_" fill="#ECEFF8" stroke="none" />
      <path d="M0 0L65.7135 0L65.7135 55.313L0 55.313L0 0Z" transform="translate(85.03402 137.0441)" id="XMLID_1098_" fill="#FFD550" stroke="none" />
      <path d="M65.7135 0.241101L65.7135 2.62528C58.0807 1.43319 49.9709 3.57895 44.6041 9.4202C37.3291 17.4072 35.8979 30.1626 26.1184 35.8846C18.6049 40.2953 9.54098 37.3151 3.81639 31.2355C2.26598 29.5665 1.07336 27.7784 0 25.871L0 19.6722C2.26598 26.7055 6.20164 32.666 13.9537 35.1693C28.2652 39.6993 33.5127 22.6524 38.9988 13.3541C44.6041 3.81737 55.3377 -1.18941 65.7135 0.241101Z" transform="translate(85.03402 139.664)" id="XMLID_1097_" fill="#484B65" stroke="none" />
      <path d="M0 0L65.7135 0L65.7135 55.313L0 55.313L0 0Z" transform="translate(0.5963115 54.55141)" id="XMLID_984_" fill="#DADEEB" stroke="none" />
      <path d="M0 0L223.736 0L223.736 9.65593L0 9.65593L0 0Z" transform="translate(0.5963115 27.25254)" id="XMLID_983_" fill="#C0CFFF" stroke="none" />
      <path d="M0 0L14.7885 0L14.7885 118.732L0 118.732L0 0Z" transform="translate(275.7344 54.55141)" id="XMLID_982_" fill="#DADEEB" stroke="none" />
      <path d="M0 0L65.7135 0L65.7135 55.313L0 55.313L0 0Z" transform="translate(0.5963115 137.0441)" id="XMLID_981_" fill="#DADEEB" stroke="none" />
      <path d="M86.1359 110.353C84.9433 110.949 83.7506 111.426 82.4388 112.022C67.6502 117.982 51.6691 117.625 37.7154 112.022C34.8531 110.949 32.1101 109.518 29.4863 107.969C19.7068 102.128 11.4777 93.5445 6.23014 82.5772C-8.08134 52.775 2.89079 21.3038 32.7064 6.8795C62.4027 -7.42558 99.4933 0.68063 113.924 30.2445C113.924 30.3637 114.043 30.4829 114.043 30.6021C128.474 60.2852 134.437 87.1072 86.1359 110.353Z" transform="translate(124.2428 93.56739)" id="XMLID_976_" fill="#FFFFFF" stroke="none" />
      <path d="M65.7135 0.119209L65.7135 2.50339C62.1357 1.78814 58.5578 3.69548 56.1725 7.03333C51.7598 13.113 49.4939 21.1 47.3471 28.1333C45.3197 34.809 43.7693 41.7232 42.6959 48.6373C42.4574 49.9486 40.3107 49.591 40.4299 48.2797C41.2648 41.0079 41.9803 30.3983 33.2742 27.6565C23.6139 24.6763 21.9443 37.074 21.825 43.6305C21.825 44.9418 20.0361 45.1802 19.559 43.9881C17.0545 36.3588 9.89877 22.0537 0 28.491L0 25.9876C9.77951 21.3384 16.3389 30.3983 19.9168 38.6237C20.8709 31.5904 23.8525 23.961 32.0816 24.7955C38.9988 25.5107 41.7418 30.8751 42.5766 36.8356C44.2463 29.9215 46.2738 23.1266 48.8975 16.4508C51.2828 10.4904 54.0258 2.38418 60.7045 0.119209C60.943 0 61.0623 0 61.3008 0L65.7135 0L65.7135 0.119209Z" transform="translate(0.5963115 54.43221)" id="XMLID_972_" fill="#FFFFFF" stroke="none" />
      <path d="M65.7135 10.3249L65.7135 13.0667C59.2734 17.3582 52.4754 29.2792 44.4848 22.8419C41.384 20.3385 40.5492 16.1662 39.7143 12.5899C38.8795 9.13282 38.0447 5.07972 34.4668 3.53C26.834 0.311355 26.4762 10.4441 27.5496 14.9741C29.2193 21.4114 34.109 33.8091 24.091 36.5509C20.1553 37.6238 16.1004 35.478 13.2381 32.8554C10.7336 30.4712 9.06393 27.491 6.67869 24.9876C4.88975 23.1995 2.50451 21.4114 0 20.9345L0 18.1927C7.15574 19.8616 13.8344 32.3786 19.4398 34.0475C27.4303 36.5509 28.7422 27.2526 27.3111 21.769C26.4762 18.6695 25.0451 15.8085 24.6873 12.5899C24.2102 8.53678 25.1643 3.88763 28.7422 1.50345C38.7602 -5.05305 41.1455 11.6362 43.2922 17.0006C45.0811 21.6498 48.8975 22.9611 53.668 21.0537C55.5762 20.3385 57.3652 17.8351 58.7963 16.2854C60.7045 14.1396 62.732 11.7554 65.475 10.5633C65.475 10.4441 65.5943 10.4441 65.7135 10.3249Z" transform="translate(0.5963115 148.892)" id="XMLID_971_" fill="#ECEFF8" stroke="none" />
      <path d="M15.8019 14.1741C11.1507 9.52492 6.61871 4.99498 1.96748 0.345827C0.894115 -0.727054 -0.656295 0.941873 0.297803 2.01475C4.94903 6.66391 9.481 11.1938 14.1322 15.843C15.2056 16.7967 16.8753 15.1277 15.8019 14.1741Z" transform="translate(2.44523 0.08468098)" id="XMLID_298_" fill="#E22A38" stroke="none" />
      <path d="M1.96748 15.7948C6.61871 11.1457 11.1507 6.61575 15.8019 1.9666C16.8753 0.893715 15.2056 -0.656002 14.1322 0.29767C9.481 4.94682 4.94903 9.47677 0.297803 14.1259C-0.656295 15.1988 0.894115 16.8677 1.96748 15.7948Z" transform="translate(2.44523 0.01362927)" id="XMLID_26_" fill="#E22A38" stroke="none" />
    </g>
    <g id="Man" transform="translate(180 142)">
      <path d="M0 126.396L134.422 129.857C134.422 129.857 70.9116 1.80863 70.9116 0.0185775C70.9116 -1.77148 0 126.396 0 126.396Z" transform="translate(162.476 134.2356)" id="Coat_Back" fill="#1B51DF" stroke="none" />
      <g id="Hand" transform="translate(125.3488 71.60221)">
        <path d="M27.9829 0C21.7752 26.1348 78.7194 73.8696 61.0511 88.4287C43.3829 102.988 4.82324 64.2033 4.82324 64.2033C4.82324 64.2033 -9.7411 73.8696 11.7473 108.477C33.2356 143.085 63.3194 155.377 84.0915 122.32C104.864 89.1448 27.9829 0 27.9829 0Z" transform="translate(0.3100944 0.9546961)" id="XMLID_1107_" fill="#F3ABAA" stroke="none" />
        <path d="M0.475494 0C-5.73226 26.1348 51.2119 73.8696 33.5437 88.4287C29.3654 91.8895 24.1127 92.3669 18.5019 91.0541C20.0538 107.523 20.2925 124.23 21.0088 140.818C33.7825 143.92 46.3174 138.789 56.7034 122.32C77.3561 89.1448 0.475494 0 0.475494 0Z" transform="translate(27.81753 0.9546961)" id="XMLID_1106_" fill="#475AEA" stroke="none" />
      </g>
      <g id="Loup" transform="translate(16.71318 0)">
        <path d="M102.69 131.568C67.2345 148.633 24.4965 133.835 7.42522 98.3919C-9.6461 62.9488 3.48569 25.2383 38.9415 8.17311C74.3973 -8.89208 118.807 0.893558 135.997 36.3366C153.069 71.8991 160.112 103.881 102.69 131.568Z" transform="translate(0.5732272 0.06113851)" id="XMLID_988_" fill="#141416" stroke="none" />
        <path d="M90.6988 108.085C89.2663 108.92 87.7143 109.636 86.1624 110.352C84.9686 110.949 83.7748 111.426 82.4616 112.023C67.6585 117.99 51.6616 117.632 37.6942 112.023C34.8291 110.949 32.0833 109.517 29.457 107.965C29.2182 107.846 28.9795 107.727 28.8601 107.607C24.8012 105.101 21.1004 102.237 17.7578 98.8957C13.1019 94.2416 9.28178 88.8714 6.29729 82.6659C3.19341 76.2217 1.28333 69.6582 0.447674 63.214C0.208915 61.9012 0.0895349 60.4692 0.0895349 59.1565C-0.029845 57.4858 -0.029845 55.8151 0.0895349 54.1443C0.208915 52.593 0.328295 51.1609 0.447674 49.6095C0.686434 47.5808 1.04457 45.5521 1.52209 43.5233C2.11899 41.1366 2.83527 38.7499 3.90969 36.4825C8.92364 24.0714 18.7128 13.5698 32.6802 6.88689C62.4058 -7.43356 99.5329 0.681361 113.978 30.2769C113.978 30.3963 114.097 30.5156 114.097 30.635C115.052 32.6637 116.007 34.5731 116.843 36.6018C128.662 62.7366 131.049 86.8427 90.6988 108.085Z" transform="translate(12.20659 11.25234)" id="XMLID_985_" fill="#FFFFFF" stroke="none" />
        <path d="M28.8601 0L28.8601 71.2442C24.8012 68.7381 21.1004 65.874 17.7578 62.5326C13.1019 57.8785 9.28178 52.5083 6.29729 46.3028C3.19341 39.8586 1.28333 33.295 0.447674 26.8508C0.208915 25.5381 0.0895349 24.1061 0.0895349 22.7934C-0.029845 21.1227 -0.029845 19.4519 0.0895349 17.7812C0.208915 16.2298 0.328295 14.7978 0.447674 13.2464C0.686434 11.2177 1.04457 9.18895 1.52209 7.16022C2.11899 4.77348 2.83527 2.38674 3.90969 0.119337L28.8601 0.119337L28.8601 0Z" transform="translate(12.20659 47.61547)" id="XMLID_25_" fill="#FFD550" stroke="none" />
        <path d="M28.8899 0.318195L28.8899 3.42096C18.9814 1.75024 8.47597 4.61433 1.55194 12.2519C1.07442 12.8486 0.477519 13.4453 0 14.042C0.11938 12.4906 0.23876 11.0585 0.35814 9.50715C8.11783 2.34692 18.6233 -1.11385 28.8899 0.318195Z" transform="translate(12.17674 51.11606)" id="XMLID_975_" fill="#484B65" stroke="none" />
        <path d="M63.3907 0C75.2093 26.3735 77.5969 50.4796 37.2465 71.7215L0 71.7215L0 0L63.3907 0Z" transform="translate(65.65891 47.61547)" id="XMLID_974_" fill="#DADEEB" stroke="none" />
        <path d="M47.6326 0L51.5721 0C51.4527 0.119337 51.3333 0.238674 51.3333 0.358011C42.9767 10.621 42.9767 23.9867 44.6481 36.5171C45.4837 38.4265 45.9612 40.5746 45.6031 42.9613C45.3643 44.5127 42.9767 45.1094 42.6186 43.3193C42.2605 41.5293 42.0217 39.7392 41.783 37.9492C39.3954 32.937 32.4713 31.2663 27.338 34.6077C21.9659 38.1878 20.6527 44.3934 20.7721 50.2409C20.7721 52.1503 17.907 52.1503 17.7876 50.2409C17.1907 42.6033 16.355 31.6243 7.16279 29.4762C4.29768 28.7602 1.91008 29.2376 0 30.4309L0 26.7315C1.67132 26.0155 3.46202 25.6575 5.49147 25.7768C13.8481 26.3735 17.5488 33.1757 19.3395 40.5746C21.369 34.9657 25.5473 30.5503 32.1132 29.7149C35.5752 29.2376 38.6791 30.3116 41.0667 32.221C40.3504 20.7646 41.1861 8.95028 47.6326 0Z" transform="translate(65.53954 47.61547)" id="XMLID_973_" fill="#FFFFFF" stroke="none" />
      </g>
      <g id="Head_1_" transform="translate(109.6357 3.580111)">
        <path d="M18.1457 0.00043731C19.3395 -0.1189 44.0512 24.2259 44.0512 24.2259C44.0512 24.2259 30.5612 37.7109 25.5473 32.8181C24.7116 31.9828 0 12.6502 0 12.6502L18.1457 0.00043731Z" transform="translate(23.71163 46.18299)" id="XMLID_970_" fill="#F3ABAA" stroke="none" />
        <path d="M28.8417 1.28529C3.05564 -8.02299 -14.6126 35.893 16.7843 47.3494C43.0479 56.777 60.9549 12.9803 28.8417 1.28529Z" transform="translate(9.076139 14.94454)" id="XMLID_969_" fill="#F3ABAA" stroke="none" />
        <path d="M26.9806 4.00405C16.2364 0.065926 1.91086 -2.9175 0.120163 4.83941C-1.55116 10.9256 14.6845 16.1764 19.4597 19.2792C22.9217 17.7278 27.2194 16.2958 30.562 18.8018C34.8597 22.0239 34.3822 27.9908 31.5171 32.5256C33.1884 36.1057 38.3217 39.3278 38.9186 39.6858C48.1109 28.1101 47.3946 11.4029 26.9806 4.00405Z" transform="translate(10.45968 15.68656)" id="XMLID_968_" fill="#1F4FCD" stroke="none" />
        <path d="M2.39193 1.26965L2.27255 3.05971C2.27255 4.49175 -0.115048 4.13374 0.00433205 2.70169L0.123712 0.911639C0.243092 -0.520406 2.51131 -0.162395 2.39193 1.26965Z" transform="translate(16.78326 31.90604)" id="XMLID_24_" fill="#0D0F44" stroke="none" />
        <path d="M26.3322 1.80945C19.4082 4.19619 12.6035 6.70227 5.67951 9.08901C4.60509 6.34425 3.41129 3.5995 2.33687 0.735414C1.73997 -0.577294 -0.408864 0.0193916 0.0686555 1.3321C1.26245 4.31552 5.67951 15.2945 6.39579 17.2039C6.99269 18.5166 9.14152 17.9199 8.664 16.6072C7.94773 14.8172 7.23145 13.0271 6.51517 11.2371C13.3198 8.85033 20.1245 6.46359 26.9291 3.95751C28.3617 3.48017 27.7648 1.21276 26.3322 1.80945Z" transform="translate(6.810414 29.57619)" id="XMLID_966_" fill="#040719" stroke="none" />
        <path d="M1.53013 10.7397C23.7348 30.4303 54.6542 43.9154 67.0697 40.6933C79.4852 37.4712 46.2976 33.533 53.4604 19.69C60.6232 5.84686 52.6247 12.5297 45.3425 13.0071C38.1797 13.6038 45.3425 3.46012 42.7162 0.357357C40.0898 -2.86474 29.1069 16.8259 23.3766 14.4391C17.7658 12.2911 -6.22956 3.81813 1.53013 10.7397Z" transform="translate(0.09622855 0.7166763)" id="XMLID_266_" fill="#0D0F44" stroke="none" />
      </g>
      <path d="M22.9209 0.756338C18.1457 0.0403163 14.2062 -0.0790208 10.8636 0.0403163C10.8636 0.159653 10.8636 0.27899 10.8636 0.398327C10.8636 1.35302 10.8636 2.18838 10.8636 3.14308C10.8636 3.50109 10.8636 3.73976 10.8636 4.09777C10.8636 4.93313 10.8636 4.69446 10.7442 4.09777C11.1023 9.46794 8.47597 14.1221 2.9845 15.9121C2.02946 16.2702 0.955039 16.3895 0 16.2702C19.5783 50.5199 43.0961 95.9873 43.0961 95.9873L92.1612 67.7044C92.1612 67.7044 47.155 4.21711 22.9209 0.756338Z" transform="translate(159.1333 65.95306)" id="Body_1_" fill="#FFD550" stroke="none" />
      <g id="Legs_1_" transform="translate(0 122.9171)">
        <path d="M235.041 15.1389C235.041 15.1389 237.668 -1.44897 226.924 0.10241C193.617 4.87589 115.542 29.34 83.1903 120.155C40.4523 240.209 61.8213 244.266 30.0663 255.126C-3.36007 266.701 0.101942 280.544 0.101942 280.544L123.66 280.544C123.66 280.544 144.432 109.773 221.79 50.94C299.148 -7.89317 235.041 15.1389 235.041 15.1389Z" transform="translate(0.7337173 27.94179)" id="XMLID_265_" fill="#0D0F44" stroke="none" />
        <path d="M40.4698 0C61.2419 19.5713 95.5039 102.988 136.332 145.352C225.27 237.719 247.116 268.866 250.578 297.627L121.29 297.627C121.29 297.627 116.634 287.244 142.062 272.208C159.014 262.183 112.575 227.934 75.0899 175.306C26.6217 107.284 0 12.6497 0 12.6497L40.4698 0Z" transform="translate(210.8248 10.74033)" id="XMLID_264_" fill="#0D0F44" stroke="none" />
        <path d="M46.3019 0C43.1981 4.1768 38.5422 6.68288 30.0663 9.54697C-3.36007 21.1227 0.101942 34.9658 0.101942 34.9658L123.66 34.9658C123.66 34.9658 125.331 21.1227 129.51 0L46.3019 0Z" transform="translate(0.7337173 273.5204)" id="XMLID_1104_" fill="#000000" stroke="none" />
        <path d="M22.6585 0C25.5236 5.72818 25.4043 10.0243 21.1066 12.6497C-4.32131 27.6862 0.334502 38.0685 0.334502 38.0685L129.623 38.0685C128.31 26.8508 124.131 15.3945 114.462 0.119337L22.6585 0.119337L22.6585 0Z" transform="translate(331.8996 270.4177)" id="XMLID_1103_" fill="#000000" stroke="none" />
        <path d="M0 24.7028C4.53643 33.295 7.40155 38.9039 7.40155 38.9039L56.4667 10.621C56.4667 10.621 53.4822 6.32486 48.5876 0C32.2326 8.11492 15.9969 16.2298 0 24.7028Z" transform="translate(194.9473 0.119337)" id="XMLID_261_" fill="#0D0F44" stroke="none" />
        <path d="M13.2681 7.83538C9.44798 5.3293 5.62782 2.70388 1.68829 0.197805C0.494488 -0.637554 -0.699311 1.39118 0.494488 2.22654C4.31464 4.73261 8.1348 7.35803 12.0743 9.86411C13.2681 10.5801 14.4619 8.5514 13.2681 7.83538Z" transform="translate(49.40629 279.2895)" id="XMLID_960_" fill="#FFFFFF" stroke="none" />
        <path d="M19.2058 2.64299C13.2368 1.80763 7.38722 0.852934 1.41823 0.0175725C-0.0143256 -0.221102 -0.611225 2.04631 0.821333 2.28498C6.79033 3.12034 12.6399 4.07504 18.6089 4.9104C20.0415 5.02974 20.6384 2.88167 19.2058 2.64299Z" transform="translate(360.3027 278.3957)" id="XMLID_259_" fill="#FFFFFF" stroke="none" />
        <path d="M6.99269 12.3111C5.44075 8.49232 3.88881 4.67354 2.33687 0.735414C1.73997 -0.577294 -0.408864 0.0193916 0.0686555 1.3321C1.62059 5.15088 3.17253 8.96967 4.72447 12.9078C5.32137 14.2205 7.58958 13.6238 6.99269 12.3111Z" transform="translate(219.7096 50.22149)" id="XMLID_258_" fill="#FFFFFF" stroke="none" />
      </g>
      <g id="Coat" transform="translate(144.2558 46.54144)">
        <path d="M68.524 78.4535L88.4605 66.9971C88.4605 66.9971 43.4543 3.50984 19.2202 0.0490633C17.1907 -0.189611 1.7907 0.526411 0 0.407074C24.5922 23.9165 49.662 52.5573 68.524 78.4535Z" transform="translate(18.57829 20.11889)" id="XMLID_964_" fill="#316AFF" stroke="none" />
        <path d="M7.70893 16.6649C20.9601 34.5655 59.0423 138.389 68.8314 165.001L158.844 130.99C158.844 130.99 62.5043 27.1666 22.6314 6.99861C-17.2415 -13.1693 7.70893 16.6649 7.70893 16.6649Z" transform="translate(67.09727 63.52956)" id="XMLID_963_" fill="#316AFF" stroke="none" />
        <path d="M30.8 28.8796C29.2481 28.1635 0 15.7525 0 15.7525L22.6822 0L40.3504 20.0486L30.8 28.8796Z" transform="translate(0.0744186 0.119337)" id="XMLID_961_" fill="#316AFF" stroke="none" />
      </g>
      <g id="Hand_1_" transform="translate(161.1628 57.28177)">
        <path d="M32.2326 0C21.6078 8.95028 11.1023 17.9006 0 26.1348C6.08837 35.3238 9.55039 42.484 10.6248 45.2287C13.3705 52.5083 5.96899 66.3514 11.8186 66.7094C17.5488 67.0674 20.6527 50.1216 20.6527 50.1216C20.6527 50.1216 31.6357 80.6718 37.1271 79.4785C39.5147 79.0011 39.276 74.705 38.2016 70.1702C39.8729 73.7503 41.9023 76.8531 44.4093 76.8531C50.6171 76.8531 42.4992 54.537 42.4992 54.537C42.4992 54.537 49.0651 73.0343 54.0791 71.8409C59.093 70.6475 49.4233 52.6276 49.4233 52.6276C49.4233 52.6276 59.093 67.6641 62.0775 66.1127C65.4202 64.442 58.3768 34.4884 32.2326 0Z" transform="translate(134.3023 76.85303)" id="XMLID_599_" fill="#F3ABAA" stroke="none" />
        <path d="M129.169 112.053C142.42 105.131 159.73 89.4983 167.967 79.3547C159.133 67.3017 147.912 54.6519 133.944 42.2409C81.6558 -3.94254 0 -7.64199 0 9.18453C0 9.90055 41.186 23.9823 82.3721 50.7138C107.322 66.8243 119.38 96.6586 129.169 112.053Z" transform="translate(0.8356589 0.7204432)" id="XMLID_962_" fill="#316AFF" stroke="none" />
        <path d="M7.35082 13.5045C5.6795 9.20834 4.00819 4.91221 2.33687 0.735414C1.73997 -0.577293 -0.408864 0.0193916 0.0686555 1.3321C1.73997 5.62823 3.41129 9.92436 5.08261 14.1012C5.56012 15.5332 7.82834 14.9365 7.35082 13.5045Z" transform="translate(121.3406 98.07564)" id="XMLID_959_" fill="#FFFFFF" stroke="none" />
        <path d="M8.06409 17.6476C6.15401 12.0387 4.24394 6.42988 2.33386 0.821038C1.85634 -0.611005 -0.411874 -0.0143204 0.065645 1.41772L4.4827 14.3061C5.91525 18.6023 8.78037 23.9724 7.46719 28.6266C7.10905 30.0586 9.25789 30.6553 9.73541 29.2232C10.9292 25.1658 9.37727 21.5857 8.06409 17.6476Z" transform="translate(164.0816 126.8696)" id="XMLID_958_" fill="#F79896" stroke="none" />
        <path d="M7.08163 18.9603C5.64907 12.8741 3.85837 6.90723 2.30643 0.821039C1.94829 -0.611006 -0.31993 -0.0143204 0.0382102 1.41772C1.11263 5.59452 2.30643 9.77132 3.38085 13.9481C4.57465 18.2442 6.84287 23.4951 4.33589 27.7912C3.61961 29.1039 5.52969 30.1779 6.36535 28.9846C8.27543 25.7625 7.91729 22.421 7.08163 18.9603Z" transform="translate(173.5401 124.2442)" id="XMLID_245_" fill="#F79896" stroke="none" />
        <path d="M8.0641 17.2896C6.15402 11.8 4.24394 6.31054 2.33386 0.821039C1.85634 -0.611006 -0.411875 -0.0143204 0.0656451 1.41772C1.4982 5.35585 2.81138 9.41331 4.24394 13.3514C5.43774 16.8122 8.42224 22.1824 6.75092 25.6431C6.15402 26.9559 8.0641 28.1492 8.78038 26.8365C10.3323 23.4951 9.2579 20.631 8.0641 17.2896Z" transform="translate(180.5561 121.3801)" id="XMLID_244_" fill="#F79896" stroke="none" />
      </g>
      <g id="Fingers_and_Handle" transform="translate(122.9612 115.7569)">
        <path d="M60.0481 60.6232C49.3039 44.632 29.4868 20.168 12.893 0C8.71473 2.86409 4.41705 5.60884 0 7.75691C10.9829 23.032 31.5163 51.1956 45.7225 68.7381C58.9736 85.0873 60.8837 82.7006 64.3457 80.4332C66.9721 78.7624 69.7178 74.9436 60.0481 60.6232Z" transform="translate(0.2387597 0.9546961)" id="XMLID_2747_" fill="#141416" stroke="none" />
        <path d="M0 5.99133C2.74574 0.263151 18.862 -2.4816 20.414 2.88857C21.9659 8.25873 6.56589 11.3615 6.56589 11.3615C6.56589 11.3615 23.5178 5.15597 25.786 12.0775C28.0543 18.9991 10.7442 21.2665 10.7442 21.2665C10.7442 21.2665 24.5922 12.7935 28.0543 18.9991C31.5163 25.2046 13.8481 28.6654 13.8481 28.6654C13.8481 28.6654 29.6062 24.0112 31.8744 29.0234C34.1426 34.0355 19.2202 40.5991 19.2202 40.5991L0 5.99133Z" transform="translate(7.162791 15.37)" id="XMLID_240_" fill="#F3ABAA" stroke="none" />
        <path d="M18.9527 0.0175577C12.3797 0.972254 6.23077 3.23966 0.505909 6.81977C-0.660267 7.53579 0.399893 9.56452 1.56607 8.8485C6.97289 5.50706 12.8038 3.35899 19.0587 2.4043C20.3309 2.04629 20.3309 -0.221116 18.9527 0.0175577Z" transform="translate(14.74531 38.40896)" id="XMLID_957_" fill="#F79896" stroke="none" />
        <path d="M16.7843 0.0400352C10.6447 2.06876 5.11893 5.52954 0.309509 10.4224C-0.611444 11.3771 0.718822 13.0478 1.7421 12.0931C6.34687 7.43893 11.4633 4.21683 17.296 2.30744C18.5239 1.83009 18.0123 -0.317976 16.7843 0.0400352Z" transform="translate(18.74531 48.64947)" id="XMLID_956_" fill="#F79896" stroke="none" />
        <path d="M21.2182 0.628396C13.9168 -1.04232 6.61546 0.628396 0.445273 5.52121C-0.583091 6.35657 0.342436 8.3853 1.47364 7.54994C7.12964 3.01514 13.814 1.22508 20.704 2.77646C22.0409 3.13447 22.5551 0.86707 21.2182 0.628396Z" transform="translate(9.745315 29.68321)" id="XMLID_955_" fill="#F79896" stroke="none" />
        <path d="M19.0371 0C11.7597 0.119337 5.11502 3.46077 0.263365 9.54696C-0.580401 10.621 0.790718 12.2917 1.73995 11.2177C6.2752 5.60884 12.287 2.50608 19.1426 2.38674C20.3028 2.38674 20.3028 0 19.0371 0Z" transform="translate(6.745314 21.36133)" id="XMLID_954_" fill="#F79896" stroke="none" />
      </g>
    </g>
  </g>
</svg>