<?xml version="1.0" encoding="utf-8"?>
<svg width="636px" height="546px" viewBox="0 0 636 546" version="1.1" xmlns:xlink="http://www.w3.org/1999/xlink" xmlns="http://www.w3.org/2000/svg">
  <desc>Created with Lunacy</desc>
  <g id="12">
    <path d="M0 0L636 0L636 545.5L0 545.5L0 0Z" id="BG" fill="#FFFFFF" stroke="none" />
    <g id="Window_10_" transform="translate(97.375 77.62512)">
      <path d="M0 0L307.4 0L307.4 161L0 161L0 0Z" transform="translate(15.32495 15.2749)" id="XMLID_1237_" fill="#316AFF" stroke="none" />
      <path d="M48.9 0L38.2 0C25.5 12.7 12.7 25.5 0 38.2L10.7 38.2C23.4 25.5 36.2 12.8 48.9 0Z" transform="translate(112.825 62.47485)" id="XMLID_460_" fill="#FFFFFF" stroke="none" />
      <path d="M38.2 0L156.1 0L156.1 38.2L0 38.2L38.2 0ZM154.4 36.5L154.4 1.7L38.9 1.7L12.3 28.3L4.1 36.5L154.4 36.5Z" transform="translate(134.7251 62.47485)" id="XMLID_449_" fill="#FFFFFF" fill-rule="evenodd" stroke="none" />
      <path d="M76.3 0L0 0L0 38.2L38.1 38.2C50.8 25.5 63.5 12.8 76.3 0Z" transform="translate(63.625 62.47485)" id="XMLID_448_" fill="#FFFFFF" stroke="none" />
      <path d="M6.78517 9.07488C6.68517 9.07488 6.58517 9.17488 6.48517 9.17488C5.28517 9.67488 4.08517 9.67488 2.98517 9.17488C2.78517 9.07488 2.58517 8.97488 2.28517 8.87488C1.48517 8.37488 0.88517 7.67488 0.48517 6.77488C-0.61483 4.37488 0.18517 1.77488 2.58517 0.574882C4.98517 -0.625118 7.88517 0.0748818 8.98517 2.47488C8.98517 2.47488 8.98517 2.47488 8.98517 2.47488C10.0852 4.97488 9.28517 7.77488 6.78517 9.07488Z" transform="translate(27.03979 0)" id="XMLID_444_" fill="#C0CFFF" stroke="none" />
      <path d="M6.78517 9.07488C6.68517 9.07488 6.58517 9.17488 6.48517 9.17488C5.28517 9.67488 4.08517 9.67488 2.98517 9.17488C2.78517 9.07488 2.58517 8.97488 2.28517 8.87488C1.48517 8.37488 0.88517 7.67488 0.48517 6.77488C-0.61483 4.37488 0.18517 1.77488 2.58517 0.574882C4.98517 -0.625118 7.88517 0.0748818 8.98517 2.47488C8.98517 2.47488 8.98517 2.47488 8.98517 2.47488C10.1852 4.97488 9.38517 7.77488 6.78517 9.07488Z" transform="translate(42.53979 0)" id="XMLID_443_" fill="#C0CFFF" stroke="none" />
      <path d="M6.78517 9.07488C6.68517 9.07488 6.58517 9.17488 6.48517 9.17488C5.28517 9.67488 4.08517 9.67488 2.98517 9.17488C2.78517 9.07488 2.58517 8.97488 2.28517 8.87488C1.48517 8.37488 0.88517 7.67488 0.48517 6.77488C-0.61483 4.37488 0.18517 1.77488 2.58517 0.574882C4.98517 -0.625118 7.88517 0.0748818 8.98517 2.47488C8.98517 2.47488 8.98517 2.47488 8.98517 2.47488C10.0852 4.97488 9.28517 7.77488 6.78517 9.07488Z" transform="translate(58.13989 0)" id="XMLID_438_" fill="#C0CFFF" stroke="none" />
      <path d="M2.96707 9.04C3.56707 9.34 4.16707 9.44 4.76707 9.44C5.36707 9.44 5.96707 9.34 6.46707 9.04C6.56707 9.04 6.66707 9.04 6.76707 8.94C9.16707 7.64 10.0671 4.94 8.96707 2.54L8.96707 2.44C8.46707 1.44 7.56707 0.64 6.46707 0.24C5.16707 -0.16 3.76707 -0.06 2.56707 0.54C0.267071 1.74 -0.632929 4.34 0.467071 6.74C0.867071 7.54 1.46707 8.24 2.26707 8.74C2.56707 8.84 2.76707 8.94 2.96707 9.04ZM3.36707 2.04C3.76707 1.74 4.36707 1.64 4.86707 1.64C5.26707 1.64 5.56707 1.74 5.96707 1.74C6.46707 1.84 7.06707 2.24 7.46707 3.04L7.46707 3.14C8.26707 4.74 7.66707 6.54 6.06707 7.34L5.86707 7.44C5.16707 7.74 4.36707 7.74 3.66707 7.44C3.56707 7.44 3.36707 7.34 3.26707 7.24C2.76707 6.94 2.36707 6.54 2.06707 5.94C1.36707 4.34 1.86707 2.74 3.36707 2.04Z" transform="translate(30.25781 70.33484)" id="XMLID_568_" fill="#FFFFFF" fill-rule="evenodd" stroke="none" />
      <path d="M2.96707 9.04C3.56707 9.34 4.16707 9.44 4.76707 9.44C5.36707 9.44 5.96707 9.34 6.46707 9.04C6.56707 9.04 6.66707 9.04 6.76707 8.94C9.16707 7.64 10.0671 4.94 8.96707 2.54L8.96707 2.44C8.46707 1.44 7.56707 0.64 6.46707 0.24C5.16707 -0.16 3.76707 -0.06 2.56707 0.54C0.267071 1.74 -0.632929 4.34 0.467071 6.74C0.867071 7.54 1.46707 8.24 2.26707 8.74C2.56707 8.84 2.76707 8.94 2.96707 9.04ZM3.46707 2.14C3.86707 1.84 4.46707 1.74 4.96707 1.74C5.26707 1.74 5.66707 1.74 6.06707 1.84C6.56707 1.94 7.16707 2.34 7.56707 3.14L7.56707 3.24C8.36707 4.84 7.76707 6.64 6.16707 7.44L5.96707 7.54C5.26707 7.84 4.46707 7.84 3.76707 7.54C3.66707 7.54 3.46707 7.44 3.36707 7.34C2.86707 7.04 2.46707 6.64 2.16707 6.04C1.46707 4.44 1.96707 2.84 3.46707 2.14Z" transform="translate(44.35791 86.13489)" id="XMLID_558_" fill="#FFFFFF" fill-rule="evenodd" stroke="none" />
      <path d="M127.525 0L0.825 0C-0.275 0 -0.275 1.7 0.825 1.7L127.525 1.7C128.625 1.7 128.625 0 127.525 0Z" transform="translate(109.2 117.1749)" id="XMLID_427_" fill="#FFFFFF" stroke="none" />
      <path d="M26.3638 0.21189C17.6638 8.91189 8.96383 17.6119 0.263826 26.3119C-0.536174 27.1119 0.663826 28.3119 1.46383 27.5119C10.1638 18.8119 18.8638 10.1119 27.5638 1.41189C28.3638 0.71189 27.0638 -0.488111 26.3638 0.21189Z" transform="translate(28.76123 68.16296)" id="XMLID_426_" fill="#FFFFFF" stroke="none" />
      <path d="M89.025 0L0.825 0C-0.275 0 -0.275 1.7 0.825 1.7L89.025 1.7C90.125 1.7 90.125 0 89.025 0Z" transform="translate(127.6001 127.5748)" id="XMLID_423_" fill="#FFFFFF" stroke="none" />
      <path d="M250.225 0L0.825 0C-0.275 0 -0.275 1.7 0.825 1.7L250.325 1.7C251.325 1.7 251.325 0 250.225 0Z" transform="translate(0 28.67493)" id="XMLID_414_" fill="#0D0F44" stroke="none" />
      <path d="M22.675 0L0.075 0C-0.025 0 -0.025 1.7 0.075 1.7L22.675 1.7C22.775 1.7 22.775 0 22.675 0Z" transform="translate(309.95 28.67493)" id="XMLID_409_" fill="#0D0F44" stroke="none" />
    </g>
    <g id="Ornament_13_" transform="translate(53 290)">
      <path d="M83.1 97C83.2 97.1 83.3 97.1 83.4 97.1C83.5 97.1 83.7 97 83.8 96.9C84 96.7 84.2 96.5 84.2 96.2L88.4 0.9C88.4 0.7 88.4 0.5 88.2 0.3C88.1 0.1 87.8 0 87.6 0C84.4 0 20 48.3 0.3 63.1C0.1 63.3 0 63.6 0 63.9C0 64.2 0.2 64.5 0.5 64.6L83.1 97ZM82.5 95L2.5 63.6C33.5 40.3 78.8 6.7 86.6 2.2L82.5 95Z" transform="translate(392.6 0.1)" id="XMLID_1341_" fill="#DADEEB" fill-rule="evenodd" stroke="none" />
      <path d="M27.375 32L27.575 32C27.775 32 27.875 31.9 27.975 31.8C28.175 31.6 28.375 31.4 28.375 31.2L28.3751 31.1868C28.378 30.8688 28.3898 29.5829 15.475 0.5C15.375 0.2 15.075 0 14.775 0C14.475 0 14.175 0.1 13.975 0.4L0.075 24.4C-0.025 24.7 -0.025 25 0.075 25.2C0.175 25.5 0.375 25.6 0.675 25.7L27.375 32ZM26.275 30L2.175 24.3L14.575 2.8C18.775 12.3 24.675 25.8 26.275 30Z" transform="translate(501.825 95.4)" id="XMLID_1337_" fill="#DADEEB" fill-rule="evenodd" stroke="none" />
      <path d="M199.901 66.6373C229.001 79.7373 252.401 104.337 263.801 135.137C264.201 136.237 262.601 136.637 262.101 135.637C250.901 105.437 228.001 81.5373 199.701 68.5373C198.601 87.3373 189.001 104.337 173.101 114.637C156.801 125.137 135.301 128.337 117.101 121.137C108.101 117.637 99.4006 111.237 95.1006 102.337C90.8006 93.4373 92.2006 83.4373 97.8006 75.4373C110.901 56.8373 139.401 54.8373 160.101 56.4373C173.501 57.5373 186.301 60.7373 198.201 65.9373C198.301 58.5373 197.101 51.1373 194.701 44.1373C180.001 1.53734 127.101 -3.96266 89.4006 6.23734C51.5006 16.5373 18.5006 43.3373 1.60063 78.9373C1.10063 79.9373 -0.399367 79.0373 0.100633 78.0373C2.50063 73.1373 5.10063 68.3373 8.00063 63.7373C30.6006 28.1373 70.5006 3.93734 112.601 0.437343C134.501 -1.36266 158.401 2.13734 176.301 15.7373C192.001 27.6373 200.301 47.0373 199.901 66.5373L199.901 66.6373ZM138.701 123.237C157.801 123.037 177.001 113.837 188.101 98.1373C194.401 89.2373 197.701 78.5373 198.001 67.7373C182.601 61.0373 165.701 57.4373 148.301 57.7373C136.701 57.9373 124.401 59.4373 113.801 64.4373C103.701 69.2373 94.5006 78.6373 94.2006 90.5373C93.7006 112.637 120.301 123.437 138.701 123.237Z" transform="translate(0.6993673 20.46266)" id="XMLID_381_" fill="#DADEEB" fill-rule="evenodd" stroke="none" />
      <path d="M30.525 0L0.825 0C-0.275 0 -0.275 1.69999 0.825 1.69999L30.525 1.69999C31.625 1.79999 31.625 0 30.525 0Z" transform="translate(459.375 191.3)" id="XMLID_166_" fill="#DADEEB" stroke="none" />
    </g>
    <g id="Socket" transform="translate(272 326)">
      <path d="M0 0L26.5 0L26.5 26.5L0 26.5L0 0Z" transform="translate(13.7 14.1)" id="XMLID_377_" fill="#C0CFFF" stroke="none" />
      <path d="M0 0.825L0 7.125C0 8.225 1.7 8.225 1.7 7.125L1.7 0.825C1.7 -0.275 0 -0.275 0 0.825Z" transform="translate(20 23.475)" id="XMLID_373_" fill="#FFFFFF" stroke="none" />
      <path d="M0 0.825L0 7.125C0 8.225 1.7 8.225 1.7 7.125L1.7 0.825C1.7 -0.275 0 -0.275 0 0.825Z" transform="translate(32.8 23.475)" id="XMLID_372_" fill="#FFFFFF" stroke="none" />
      <path d="M13.0359 0.0709297C8.83587 1.97093 4.63587 3.77093 0.435868 5.67093C-0.564132 6.07093 0.335868 7.57093 1.33587 7.17093C5.53587 5.27093 9.73587 3.47093 13.9359 1.57093C14.8359 1.07093 14.0359 -0.32907 13.0359 0.0709297Z" transform="translate(47.46413 7.72907)" id="XMLID_365_" fill="#FFD550" stroke="none" />
      <path d="M10.5359 4.80063C7.43587 3.20063 4.33587 1.70063 1.33587 0.100633C0.335868 -0.399367 -0.564132 1.10063 0.435868 1.60063L9.63587 6.30063C10.6359 6.80063 11.5359 5.30063 10.5359 4.80063Z" transform="translate(46.06413 23.59937)" id="XMLID_364_" fill="#FFD550" stroke="none" />
      <path d="M9.46383 8.26383L1.46383 0.263826C0.663826 -0.536174 -0.536174 0.663826 0.263826 1.46383C2.96383 4.16383 5.56383 6.76383 8.26383 9.46383C9.06383 10.2638 10.2638 9.06383 9.46383 8.26383Z" transform="translate(0.5361741 0.6361741)" id="XMLID_362_" fill="#FFD550" stroke="none" />
    </g>
    <g id="Man_6_" transform="translate(49 75)">
      <g id="Hand_and_plug" transform="translate(0 39)">
        <path d="M97.3977 0C93.1977 22 90.5977 44 82.2977 55.8C66.2977 78.6 21.7977 98 9.79769 108.9C-2.20231 119.7 -0.502314 120.3 1.19769 122.6C2.19769 124 8.89769 121.3 14.0977 118.9C8.19769 122 0.497686 126.8 2.29769 130C3.79769 132.8 10.1977 130.9 15.7977 128.6C10.6977 131.4 5.59769 135 7.49769 137.5C9.69769 140.4 17.9977 137.4 23.5977 135C18.7977 137.6 12.7977 141.5 14.8977 144.4C18.2977 149 101.098 118.1 115.898 71.9C121.698 53.8 124.998 30.4 126.798 8.5C116.898 6.2 107.098 3.2 97.3977 0Z" transform="translate(224.9023 56.1)" id="XMLID_607_" fill="#F3ABAA" stroke="none" />
        <path d="M36.4 8.7C36.4 10.4 36.4 12.3 36.4 14.4C36.3 26.6 35.8 45.4 34 65.3C33.9 66.1 33.9 66.9 33.8 67.7C23.6 66.1 10.1 61.5 0 59.8C3.6 40.1 11.3 21.8 21.5 7.7C23.1 5.5 24.8 3.5 26.7 1.7L36.4 0C36.4 0 36.4 1.3 36.5 3.6C36.4 4.9 36.4 6.6 36.4 8.7Z" transform="translate(317.7 0.6)" id="XMLID_328_" fill="#F9C840" stroke="none" />
        <g id="Plug" transform="translate(0 22)">
          <path d="M242.72 130.5C235.12 130.8 227.82 133.2 220.52 135.1C212.52 137.1 204.52 138.8 196.42 140.3C163.62 146.4 129.92 148.4 96.62 146.2C69.12 144.4 38.52 138.9 19.32 117.2C2.32002 98 -3.17998 69.1 6.22003 45.1C15.42 21.5 38.42 5 63.12 1.7L63.12 0C43.62 2.5 25.22 13.1 13.32 28.9C-1.57998 48.8 -3.77998 75.7 5.72003 98.5C15.92 123.1 38.22 137.3 63.42 143.3C77.82 146.7 92.62 147.9 107.32 148.5C124.32 149.2 141.42 148.7 158.32 147.3C177.02 145.7 195.52 142.7 213.82 138.6C223.32 136.4 233.02 132.7 242.72 132.4C252.02 132.1 263.12 136.9 263.62 147.4C263.72 148.5 265.42 148.5 265.32 147.4C264.72 135.7 253.02 130.1 242.72 130.5Z" transform="translate(0.6799752 0.9)" id="XMLID_326_" fill="#0D0F44" stroke="none" />
          <path d="M0 0.825L0 14.525C0 15.625 1.7 15.625 1.7 14.525L1.7 0.825C1.7 -0.275 0 -0.275 0 0.825Z" transform="translate(253.3 174.675)" id="XMLID_325_" fill="#0D0F44" stroke="none" />
          <path d="M0 0.825L0 14.525C0 15.625 1.70001 15.625 1.70001 14.525L1.70001 0.825C1.70001 -0.275 0 -0.275 0 0.825Z" transform="translate(268.1 174.675)" id="XMLID_323_" fill="#0D0F44" stroke="none" />
          <path d="M41.3 38.7L0 38.7L0 20.6C0 9.2 9.2 0 20.6 0L20.6 0C32 0 41.2 9.2 41.2 20.6L41.2 38.7L41.3 38.7Z" transform="translate(241 140.1)" id="XMLID_487_" fill="#316AFF" stroke="none" />
          <path d="M47.025 0L0.825 0C-0.275 0 -0.275 1.7 0.825 1.7L47.025 1.7C48.125 1.7 48.125 0 47.025 0Z" transform="translate(237.775 177.5)" id="XMLID_486_" fill="#173C9C" stroke="none" />
          <path d="M0 0.825L0 16.825C0 17.925 1.69999 17.925 1.69999 16.825L1.69999 0.825C1.79999 -0.275 0 -0.275 0 0.825Z" transform="translate(274.9 154.175)" id="XMLID_320_" fill="#FFFFFF" stroke="none" />
        </g>
        <g id="XMLID_165_" transform="translate(246 150)">
          <path d="M17.2266 0C2.42663 12 -3.57337 28.1 2.12663 29.8C7.82663 31.5 27.5266 1.7 27.5266 1.7L17.2266 0Z" transform="translate(0.5733708 0.1)" id="XMLID_319_" fill="#F3ABAA" stroke="none" />
          <path d="M20.025 0.211889C14.625 5.01189 8.125 8.01189 0.825 8.71189C-0.275 8.81189 -0.275 10.5119 0.825 10.4119C8.525 9.61189 15.425 6.51189 21.225 1.41189C22.025 0.71189 20.825 -0.488111 20.025 0.211889Z" transform="translate(20.675 2.08811)" id="XMLID_484_" fill="#C7908F" stroke="none" />
        </g>
      </g>
      <g id="XMLID_163_" transform="translate(290.7795 102.3)">
        <path d="M5.3 34.9C25.2 34.2 45.1 37.1 65 37.4C64.1 35.3 63.3 33.3 62.4 31.2C61.9 30.1 61.4 29 60.9 27.9C56.5 18.1 51.9 8.8 47.5 0C31.9 5.7 16.2 10.9 0 14.4C4.3 23.3 6.8 30.4 5.3 34.9Z" transform="translate(33.62036 242.1)" id="XMLID_576_" fill="#F3ABAA" stroke="none" />
        <path d="M6.3 40.6C9.8 40.9 13.4 40.9 16.9 40.8C23.5 40.7 30 40.8 36.6 40.8C46.4 40.9 56.2 40.5 65.9 39.8C59.2 25.6 52.2 12.3 45.5 0C30.4 4.1 15.3 7.8 0 11.2C5.1 23 8.1 33.3 6.3 40.6Z" transform="translate(89.42041 235.3999)" id="XMLID_577_" fill="#F3ABAA" stroke="none" />
        <path d="M23.612 0.1C23.012 6.9 18.612 11.5 12.312 14C-4.788 20.9 0.912 35.1 0.912 35.1L96.212 35.1C91.512 22.9 86.312 11.2 81.012 0L23.612 0L23.612 0.1Z" transform="translate(72.6084 271.5)" id="XMLID_312_" fill="#0D0F44" stroke="none" />
        <path d="M90.8178 238.1C68.8178 196.8 41.5178 169 49.7178 149C74.8178 88.1 80.5178 44.5 66.3178 6.9L27.5178 0C27.5178 0 30.9178 18.3 29.2178 51.4C27.5178 84.5 3.21778 114.5 0.117775 162.7C-1.58222 189.4 15.5178 232.1 25.8178 256.9C40.9178 251.9 75.3178 241.8 90.8178 238.1Z" transform="translate(58.00269 0)" id="XMLID_311_" fill="#141416" stroke="none" />
        <path d="M82.8204 242.784C61.7204 200.584 41.9204 168.384 52.0204 144.584C78.6204 82.0842 107.12 44.6842 92.8204 6.98419C92.8204 6.98419 65.4204 -14.7158 63.7204 18.3842C62.0204 51.4842 6.92044 114.584 0.620444 162.484C-3.77956 195.784 16.3204 236.484 26.3204 260.084C42.2204 255.284 67.8204 249.684 82.8204 242.784Z" transform="translate(0 2.815796)" id="XMLID_310_" fill="#141416" stroke="none" />
        <path d="M95.3 31.6L0 31.6C0 31.6 0 11.9 19.7 6.8C23.7 5.8 25.5 3.4 25.8 0L83.2 0C87.5 10 91.6 20.6 95.3 31.6Z" transform="translate(13.62036 275)" id="XMLID_309_" fill="#0D0F44" stroke="none" />
        <path d="M33 3.2C32.9 3.8 32.8 4.3 32.6 4.9C31.4 9.2 28.4 13.1 24 15.2C17.2 18.5 9.2 18.4 4.7 25.5C2.6 28.9 1.7 32.7 1.6 36.5L0 36.5C0.3 29.3 2.5 22.6 9.3 18.8C14.9 15.7 22.1 15.8 26.9 11.3C28.8 9.6 30.1 7.3 30.8 4.9C31.3 3.3 31.5 1.6 31.4 0C32 1 32.5 2.1 33 3.2Z" transform="translate(63.02051 270.1)" id="XMLID_308_" fill="#FFFFFF" stroke="none" />
        <path d="M9.37279 5.23903C6.67279 3.53903 3.97279 1.83902 1.27279 0.139019C0.372792 -0.460982 -0.527208 1.03902 0.372792 1.63902C3.07279 3.33903 5.77279 5.03903 8.47279 6.73903C9.47279 7.33903 10.2728 5.83903 9.37279 5.23903Z" transform="translate(97.94775 275.761)" id="XMLID_307_" fill="#FFFFFF" stroke="none" />
        <path d="M9.67284 2.63723C6.77284 1.73722 3.97284 0.937223 1.07284 0.0372215C-0.0271572 -0.262779 -0.427157 1.33722 0.572843 1.73722C3.47284 2.63723 6.27284 3.43723 9.17284 4.33723C10.2728 4.63723 10.6728 3.03723 9.67284 2.63723Z" transform="translate(39.64771 280.0627)" id="XMLID_306_" fill="#FFFFFF" stroke="none" />
        <path d="M8.56048 17.6728C6.26048 11.9728 3.96048 6.27284 1.76048 0.572843C1.36048 -0.427157 -0.339516 -0.0271572 0.0604837 1.07284C2.36048 6.77284 4.66048 12.4728 6.86048 18.1728C7.26048 19.1728 8.96048 18.7728 8.56048 17.6728Z" transform="translate(69.06006 222.8271)" id="XMLID_305_" fill="#FFFFFF" stroke="none" />
        <path d="M14.3172 1.9C14.1172 2.6 13.9172 3.3 13.8172 4C9.81724 20.3 5.71724 36.6 1.71724 52.9C1.41724 54 -0.182759 53.5 0.0172405 52.4C4.21724 35.7 8.31724 18.9 12.5172 2.2C12.7172 1.5 12.9172 0.8 13.0172 0C13.4172 0.7 13.9172 1.3 14.3172 1.9Z" transform="translate(73.00317 45.8999)" id="XMLID_304_" fill="#FFFFFF" stroke="none" />
        <path d="M6.88167 7.52891C6.68167 8.22891 6.48167 8.92891 6.38167 9.62891C5.98167 9.02891 5.48167 8.42891 5.08167 7.82891C3.48167 5.62891 1.78167 3.42891 0.181668 1.22891C-0.518332 0.328906 0.981668 -0.471094 1.68167 0.328906C2.98167 2.12891 4.28167 3.92891 5.68167 5.62891C5.98167 6.32891 6.48167 6.92891 6.88167 7.52891Z" transform="translate(80.43872 40.271)" id="XMLID_302_" fill="#FFFFFF" stroke="none" />
      </g>
      <g id="XMLID_183_" transform="translate(339 42)">
        <path d="M8.92122 0.621905C-11.2788 4.8219 8.62122 42.7219 12.3212 80.5219L72.8212 66.2219C72.8212 66.2219 48.2212 -7.4781 8.92122 0.621905Z" transform="translate(3.278784 0.9780953)" id="XMLID_299_" fill="#F9C840" stroke="none" />
        <path d="M11.5353 30.1728C8.23534 20.2728 5.03534 10.4728 1.73534 0.572843C1.43534 -0.427157 -0.264658 -0.0271572 0.0353421 1.07284C3.33534 10.9728 6.53534 20.7728 9.83534 30.6728C10.2353 31.6728 11.8353 31.1728 11.5353 30.1728Z" transform="translate(0.1646579 29.92716)" id="XMLID_298_" fill="#FFFFFF" stroke="none" />
      </g>
      <g id="XMLID_162_" transform="translate(349 37)">
        <path d="M60.6 25.8C45.2 11.4 27.8 3.8 9.3 0C5.9 9.2 2.8 18.6 0 28C2.7 28.9 5.4 29.9 8 30.9C46.8 45.2 52 73.1 58.2 89.7C64.5 106.3 45.6 129.7 51.9 132.5C58.2 135.4 67.3 114.2 67.3 114.2C67.3 114.2 65 149.9 69.6 151C73.8 152.1 75.9 142.8 76.8 135.6C76.5 142.4 76.9 150.8 81 150.5C84.6 150.2 85.7 143.5 85.9 137.2C86.5 142.4 87.9 147.4 91.3 147.7C95.6 148.1 95.4 139 94.7 132.2C95.9 138.2 98.1 145.6 101.9 144.2C108.3 142 95.4 58.3 60.6 25.8Z" transform="translate(69.4 3.6)" id="XMLID_604_" fill="#F3ABAA" stroke="none" />
        <path d="M82.5 4.0413C79.1 13.5413 73.3 31.1413 70.9 40.9413C58.9 34.0413 45.6 28.5413 35.8 22.9413C24.1 16.3413 13 13.2413 6.6 11.3413C5.9 11.1413 5.2 10.9413 4.6 10.8413C1.6 10.0413 0 9.5413 0 9.5413L2.2 6.0413L4.6 2.1413C6.6 1.9413 8.5 1.8413 10.5 1.6413C35.2 -0.458703 59.8 -1.3587 82.5 4.0413Z" transform="translate(0.4 0.4587026)" id="XMLID_293_" fill="#F9C840" stroke="none" />
        <path d="M7.11624 0.812908C6.51624 6.01291 7.31624 18.3129 0.616249 19.6129C-0.48375 19.8129 0.0162494 21.5129 1.11625 21.3129C4.11625 20.7129 6.01624 18.4129 6.81624 15.6129C8.21624 11.0129 8.21624 5.71291 8.81624 0.912908C9.01624 -0.287092 7.21624 -0.287092 7.11624 0.812908Z" transform="translate(138.2838 134.1871)" id="XMLID_483_" fill="#E22A38" stroke="none" />
        <path d="M4.57284 0.825C4.47284 3.825 4.37284 6.825 4.17284 9.825C4.07284 11.825 4.77284 20.825 1.07284 20.025C-0.0271572 19.825 -0.427157 21.425 0.572843 21.725C3.57284 22.325 5.07284 20.125 5.57284 17.425C6.47284 12.125 6.07284 6.225 6.27284 0.825C6.37284 -0.275 4.67284 -0.275 4.57284 0.825Z" transform="translate(149.1272 132.775)" id="XMLID_291_" fill="#E22A38" stroke="none" />
        <path d="M4.61625 0.825C4.61625 -0.275 2.91625 -0.275 2.91625 0.825C3.01625 4.025 4.81625 17.225 0.61625 18.325C-0.483751 18.625 0.0162494 20.225 1.11625 20.025C3.61625 19.325 4.61625 17.525 4.81625 15.025C5.31625 10.425 4.71625 5.525 4.61625 0.825Z" transform="translate(159.6837 131.275)" id="XMLID_290_" fill="#E22A38" stroke="none" />
        <path d="M2.71625 0.776702C2.61625 -0.323298 0.91625 -0.223298 1.01625 0.876702C1.31625 3.6767 4.71625 19.0767 0.61625 19.8767C-0.483751 20.0767 0.0162494 21.6767 1.11625 21.4767C3.81625 20.9767 4.51625 18.6767 4.51625 16.1767C4.41625 11.1767 3.31625 5.8767 2.71625 0.776702Z" transform="translate(169.8837 126.7233)" id="XMLID_286_" fill="#E22A38" stroke="none" />
        <path d="M6.94509 2.36048C4.94509 1.56048 2.94509 0.860484 1.04509 0.0604837C0.045085 -0.339516 -0.454915 1.36048 0.545085 1.76048C2.54509 2.56048 4.54509 3.26048 6.44509 4.06048C7.54509 4.46048 8.04509 2.76048 6.94509 2.36048Z" transform="translate(32.85492 22.13952)" id="XMLID_285_" fill="#FFFFFF" stroke="none" />
      </g>
      <g id="XMLID_146_" transform="translate(312 0)">
        <path d="M24.1 17.2C21.1 10.1 16.7 0.1 16.1 0L0 3.4C0 3.4 7.7 18.8 11.3 26.1C15.3 22.8 19.6 19.9 24.1 17.2Z" transform="translate(22.2 24.6)" id="XMLID_160_" fill="#F3ABAA" stroke="none" />
        <path d="M34.2178 19.6028C34.2178 20.1028 34.1178 20.6028 34.0178 21.1028C33.9178 21.6028 33.8178 22.1028 33.7178 22.5028C33.7178 22.6028 33.6178 22.7028 33.6178 22.8028C33.5178 23.2028 33.4178 23.6028 33.3178 24.0028C31.4178 30.1028 26.5178 34.9028 18.9178 35.1028C4.31777 35.4028 -1.48223 23.2028 0.317771 13.2028C1.51777 6.50279 6.21777 0.702787 13.9178 0.102787C14.2178 0.102787 14.6178 0.00278738 14.9178 0.00278738C22.0178 -0.0972126 27.0178 2.50279 30.2178 6.30279C30.7178 7.00279 31.2178 7.70279 31.7178 8.40279C32.0178 8.90279 32.2178 9.40279 32.5178 9.90279C32.9178 10.7028 33.2178 11.5028 33.4178 12.3028C34.1178 14.7028 34.4178 17.2028 34.2178 19.6028Z" transform="translate(6.582229 0.6972126)" id="XMLID_916_" fill="#F3ABAA" stroke="none" />
        <path d="M1.73534 0.579245L2.13534 1.77924C2.53534 2.77925 0.835342 3.17925 0.435342 2.17924L0.0353421 0.979245C-0.264658 -0.0207555 1.43534 -0.420756 1.73534 0.579245Z" transform="translate(17.56466 19.12076)" id="XMLID_274_" fill="#0D0F44" stroke="none" />
        <path d="M1.73534 0.6517L2.13534 1.8517C2.53534 2.8517 0.835342 3.2517 0.435342 2.2517L0.0353421 1.0517C-0.264658 -0.0483003 1.43534 -0.4483 1.73534 0.6517Z" transform="translate(8.164658 20.4483)" id="XMLID_270_" fill="#0D0F44" stroke="none" />
        <path d="M39.3697 12.3108C39.0697 11.5108 38.7697 10.7108 38.4697 9.91078C38.2697 9.41078 37.9697 8.91078 37.6697 8.41078C37.2697 7.71078 36.7697 7.01078 36.1697 6.31078C32.9697 2.41078 27.9697 -0.189216 20.8697 0.0107836C20.5697 0.0107836 20.1697 0.0107836 19.8697 0.110784C17.5697 0.310784 11.1697 1.31078 8.7697 4.31078C1.8697 6.41078 -3.6303 12.4108 2.9697 14.9108C7.9697 17.0108 17.0697 15.4108 21.3697 13.3108C21.7697 15.1108 24.4697 20.1108 26.5697 19.9108C29.0697 19.6108 28.6697 16.8108 27.8697 15.1108C27.7697 14.9108 27.6697 14.7108 27.5697 14.5108C28.0697 14.2108 28.5697 13.9108 29.1697 13.7108C32.5697 12.1108 37.1697 13.6108 38.2697 17.5108C38.7697 19.5108 38.5697 21.7108 37.3697 23.2108C37.2697 23.4108 38.7697 24.0108 39.2697 24.1108C39.3697 23.7108 39.4697 23.3108 39.5697 22.9108C39.5697 22.8108 39.5697 22.7108 39.6697 22.6108C39.7697 22.1108 39.8697 21.7108 39.9697 21.2108C40.0697 20.7108 40.0697 20.2108 40.1697 19.7108C40.2697 17.2108 40.0697 14.7108 39.3697 12.3108Z" transform="translate(0.6303008 0.6892164)" id="XMLID_267_" fill="#475AEA" stroke="none" />
        <path d="M20.7 0L19.2 3.9L16.9 9.7L14.9 14.8L11.9 22.5L3.7 12.6L0 8.2C1.6 6 3.3 4 5.2 2.2L14.9 0.5C16.8 0.3 18.7 0.1 20.7 0Z" transform="translate(27.2 39.1)" id="XMLID_485_" fill="#F3ABAA" stroke="none" />
      </g>
    </g>
  </g>
</svg>