<?xml version="1.0" encoding="utf-8"?>
<svg width="82px" height="143px" viewBox="0 0 82 143" version="1.1" xmlns:xlink="http://www.w3.org/1999/xlink" xmlns="http://www.w3.org/2000/svg">
  <desc>Created with Lunacy</desc>
  <g id="Rosette">
    <path d="M17.4224 20.6978L21.3524 2.92824C21.71 1.31102 20.6848 0.270412 19.0624 0.603982L2.93755 3.91938C1.31519 4.25295 0.534498 5.75509 1.19384 7.2745C3.32972 12.1966 7.58385 22 7.58385 22C7.58385 22 17.4224 20.6978 17.4224 20.6978Z" transform="translate(26 0)" id="XMLID_377_" fill="#FFD550" stroke="none" />
    <path d="M0 11.9588L5.83993 2.5482C6.71328 1.14087 7.98643 1.21796 8.68359 2.7204L14.7377 15.7676C15.4348 17.27 14.6645 18.6272 13.0172 18.799C8.77249 19.2415 1.49787 20 1.49787 20C1.49787 20 0 11.9588 0 11.9588Z" transform="translate(43 4)" id="XMLID_373_" fill="#FFD550" stroke="none" />
    <path d="M19 11.9728L9.80443 2.18564C8.6703 0.978544 7.25843 1.24913 6.65095 2.79L1.09996 16.8699C0.492468 18.4107 1.34247 19.6848 2.99848 19.7156C8.19258 19.812 18.3141 20 18.3141 20C18.3141 20 19 11.9728 19 11.9728Z" transform="translate(18 8)" id="XMLID_372_" fill="#FFD550" stroke="none" />
    <path d="M14.5641 0L2.58535 7.04201C1.1575 7.88141 1.11314 9.31271 2.48626 10.2389C7.19721 13.4166 16.9573 20 16.9573 20C16.9573 20 24 4.41472 24 4.41472C24 4.41472 14.5641 0 14.5641 0Z" transform="translate(20 22)" id="XMLID_365_" fill="#FFD550" stroke="none" />
    <path d="M0 6.6135C0 6.6135 1.60563 22 1.60563 22L16.4786 12.4214C17.8712 11.5246 18.1238 9.78016 17.0429 8.52514C14.3151 5.35781 9.7007 0 9.7007 0C9.7007 0 0 6.6135 0 6.6135Z" transform="translate(38 20)" id="XMLID_364_" fill="#FFD550" stroke="none" />
    <path d="M29.5015 3.77069L0 110.447L23.9955 96.5981L38.4743 116L45 0L29.5015 3.77069Z" transform="translate(0 27)" id="XMLID_362_" fill="#FFD550" stroke="none" />
    <path d="M0 6.73134L12.8494 0L47 73.2289L30.3026 65.2736L22.4693 82L0 6.73134Z" transform="translate(35 29)" id="XMLID_357_" fill="#FFD550" stroke="none" />
    <path d="M14.8695 14.5752C11.6274 18.1277 5.69505 17.5915 2.38397 14.173C-0.927101 10.6876 -0.78914 5.92861 2.79786 2.64425C6.38486 -0.640114 11.9723 -1.04228 15.2834 2.44317C18.6634 5.86158 19.2843 9.7492 14.8695 14.5752Z" transform="translate(30 13)" id="XMLID_355_" fill="#FFFFFF" stroke="none" />
    <path d="M0 0.453782L0 19.5462C0 20.1513 1 20.1513 1 19.5462L1 0.453782C1 -0.151261 0 -0.151261 0 0.453782Z" transform="translate(42 42)" id="XMLID_339_" fill="#FFFFFF" stroke="none" />
    <path d="M4.94567 8.26602C3.65091 5.57577 2.28421 2.95113 0.989437 0.260883C0.70171 -0.32966 -0.233401 0.195267 0.0543258 0.720194L4.01056 8.72533C4.29829 9.31588 5.2334 8.85656 4.94567 8.26602Z" transform="translate(40 29)" id="XMLID_334_" fill="#FFFFFF" stroke="none" />
    <path d="M5.20254 0.0524093L0.283447 2.06484C-0.358173 2.34241 0.212156 3.17514 0.782485 2.96696L5.70158 0.954532C6.3432 0.676956 5.84416 -0.225167 5.20254 0.0524093Z" transform="translate(27 24)" id="XMLID_328_" fill="#FFFFFF" stroke="none" />
    <path d="M1.171 0.359422C0.762195 3.33506 0.41179 6.38155 0.00298362 9.35718C-0.0554173 9.99482 0.762195 10.2782 0.820596 9.64058C1.2294 6.66494 1.57981 3.61845 1.98861 0.642816C2.10542 0.00517904 1.2878 -0.278215 1.171 0.359422Z" transform="translate(38 5)" id="XMLID_326_" fill="#FFFFFF" stroke="none" />
    <path d="M4.09817 0.16417L0.16417 4.09817C-0.345793 4.60814 0.455578 5.33666 0.892689 4.82669L4.82669 0.892689C5.33666 0.455578 4.60814 -0.345793 4.09817 0.16417Z" transform="translate(45 14)" id="XMLID_325_" fill="#FFFFFF" stroke="none" />
    <path d="M0 0.487805L0 5.56098C0 6.14634 1 6.14634 1 5.56098L1 0.487805C1 -0.162602 0 -0.162602 0 0.487805Z" transform="translate(38 29)" id="XMLID_323_" fill="#FFFFFF" stroke="none" />
    <path d="M6.96799 0.345529C4.67389 10.3577 2.30809 20.3699 0.0139774 30.382C-0.129404 30.995 0.874268 31.2675 1.01765 30.6545C3.31176 20.6423 5.67756 10.6301 7.97167 0.617969C8.18674 0.00497885 7.11138 -0.267461 6.96799 0.345529Z" transform="translate(25 47)" id="XMLID_322_" fill="#FFFFFF" stroke="none" />
    <path d="M14.6543 5.05798L0.61821 0.0273587C0.0049808 -0.16864 -0.267565 0.746019 0.345663 0.942018C5.04708 2.64067 9.68037 4.27399 14.3818 5.97264C14.995 6.16864 15.2676 5.25398 14.6543 5.05798Z" transform="translate(30 37)" id="XMLID_321_" fill="#FFFFFF" stroke="none" />
  </g>
</svg>